HIERARCHY
ROOT Hips
{
  OFFSET -331.093 83.8371 -317.828
  CHANNELS 6 Xposition Yposition Zposition Zrotation Xrotation Yrotation
  JOINT LeftUpLeg
  {
    OFFSET 8.64259 1.95398 -2.38835
    CHANNELS 3 Zrotation Xrotation Yrotation
    JOINT LeftLeg
    {
      OFFSET 43.7702 0 0
      CHANNELS 3 Zrotation Xrotation Yrotation
      JOINT LeftFoot
      {
        OFFSET 40.6238 0 0
        CHANNELS 3 Zrotation Xrotation Yrotation
        JOINT LeftToeBase
        {
          OFFSET 12.7242 0 0
          CHANNELS 3 Zrotation Xrotation Yrotation
          End Site
          {
            OFFSET 0 0 0
          }
        }
      }
    }
  }
  JOINT RightUpLeg
  {
    OFFSET -8.2249 1.95398 -2.59336
    CHANNELS 3 Zrotation Xrotation Yrotation
    JOINT RightLeg
    {
      OFFSET 43.5653 0 0
      CHANNELS 3 Zrotation Xrotation Yrotation
      JOINT RightFoot
      {
        OFFSET 40.6238 0 0
        CHANNELS 3 Zrotation Xrotation Yrotation
        JOINT RightToeBase
        {
          OFFSET 12.7242 0 0
          CHANNELS 3 Zrotation Xrotation Yrotation
          End Site
          {
            OFFSET 0 0 0
          }
        }
      }
    }
  }
  JOINT Spine
  {
    OFFSET 0.165834 0.87714 6.61349
    CHANNELS 3 Zrotation Xrotation Yrotation
    JOINT Spine1
    {
      OFFSET 7.38963 1.71661e-005 0
      CHANNELS 3 Zrotation Xrotation Yrotation
      JOINT Spine2
      {
        OFFSET 11.9445 1.14441e-005 0
        CHANNELS 3 Zrotation Xrotation Yrotation
        JOINT Spine3
        {
          OFFSET 14.7254 4.19617e-005 0
          CHANNELS 3 Zrotation Xrotation Yrotation
          JOINT Spine4
          {
            OFFSET 10.9679 0 0
            CHANNELS 3 Zrotation Xrotation Yrotation
            JOINT RightShoulder
            {
              OFFSET 2.46616 -1.6653 3.69651
              CHANNELS 3 Zrotation Xrotation Yrotation
              JOINT RightArm
              {
                OFFSET 13.0012 0 0
                CHANNELS 3 Zrotation Xrotation Yrotation
                JOINT RightForeArm
                {
                  OFFSET 28.7848 1.62311e-005 0
                  CHANNELS 3 Zrotation Xrotation Yrotation
                  JOINT RightHand
                  {
                    OFFSET 26.5688 1.62095e-005 0
                    CHANNELS 3 Zrotation Xrotation Yrotation
                    End Site
                    {
                      OFFSET 0 0 0
                    }
                  }
                }
              }
            }
            JOINT LeftShoulder
            {
              OFFSET 2.38034 -1.29275 -3.7523
              CHANNELS 3 Zrotation Xrotation Yrotation
              JOINT LeftArm
              {
                OFFSET 16.3182 6.07031e-005 0
                CHANNELS 3 Zrotation Xrotation Yrotation
                JOINT LeftForeArm
                {
                  OFFSET 27.0901 0 0
                  CHANNELS 3 Zrotation Xrotation Yrotation
                  JOINT LeftHand
                  {
                    OFFSET 24.5451 1.51738e-005 0
                    CHANNELS 3 Zrotation Xrotation Yrotation
                    End Site
                    {
                      OFFSET 0 0 0
                    }
                  }
                }
              }
            }
            JOINT Neck
            {
              OFFSET 5.0226 -0.0266342 0
              CHANNELS 3 Zrotation Xrotation Yrotation
              JOINT Head
              {
                OFFSET 6.69364 2.86102e-005 0
                CHANNELS 3 Zrotation Xrotation Yrotation
                End Site
                {
                  OFFSET 0 0 0
                }
              }
            }
          }
        }
      }
    }
  }
}
MOTION
Frames:	9
Frame Time:	0.0416667
-161.443 97.9491 -220.911 85.6216 -52.3199 87.2797 -176.523 9.77545 87.7379 -21.1976 8.44831 -0.317411 69.7226 6.76067 3.27307 36.2602 6.69169 3.28036 177.921 15.8429 94.9275 -20.0223 -4.41772 -3.13781 65.2139 -2.72036 -1.49185 25.8297 -0.0337489 -0.923255 -0.112863 7.2353 -90.0311 12.4032 -0.238914 -0.0348109 0.732295 -0.240231 -0.0242494 -21.803 -0.217412 -0.104991 -1.79035 -0.217405 -0.105003 91.6332 -39.138 -100.433 34.1696 -12.1142 1.08511 -7.74656 -9.54406 -42.6095 -4.02713 -0.326849 3.51264 -97.4132 -48.9038 67.9216 -22.66 14.101 -1.04471 7.21998 13.7132 -38.9215 10.7047 1.00015 5.12424 6.32557 -5.28444 2.54571 -12.2961 -5.52549 -2.02884 
-161.841 98.0233 -221.944 86.2224 -52.3386 87.9333 -176.677 9.7272 87.6359 -20.8424 10.8439 -0.411884 69.4555 7.93802 5.2924 36.1572 7.39228 5.5869 178.611 18.0868 95.1123 -27.1332 -5.46746 -3.42684 65.912 -2.846 -1.6014 34.5924 -0.64468 -3.30137 -0.18847 7.20063 -90.0413 12.4726 -0.39406 -0.0371444 0.801713 -0.395335 -0.0197645 -21.7339 -0.364691 -0.153858 -1.72121 -0.364693 -0.153866 91.208 -40.6444 -100.772 32.7735 -12.8235 0.486676 -10.4111 -12.5197 -41.8856 -4.21223 -0.325401 2.0356 -97.7693 -49.2659 67.5226 -21.4574 15.1959 -1.50342 6.78653 16.6132 -36.1382 9.09825 0.570851 2.23539 4.05406 -5.50222 3.75009 -10.4616 -5.80719 -3.85167 
-161.189 97.8935 -221.875 86.721 -51.3714 87.6222 -176.849 9.4927 86.6334 -21.9126 10.7533 -0.478251 71.1334 8.94402 5.55243 34.0507 6.25121 7.55789 178.445 14.2859 93.797 -25.0576 -9.21848 -3.96774 65.859 -3.23034 -1.73317 37.313 -1.04357 -4.35281 -0.246043 7.13607 -89.9774 12.6022 -0.477992 0.0999806 0.931376 -0.473125 0.120911 -21.6045 -0.485939 -0.0482984 -1.59187 -0.485948 -0.0483059 91.1021 -41.2064 -100.806 32.6051 -14.2607 1.52488 -10.3477 -13.6386 -42.0022 -1.98412 -0.203506 1.94205 -97.3856 -49.088 68.0246 -22.0172 15.154 -0.204593 6.72162 16.8694 -36.0666 8.71802 0.60247 2.76498 3.94426 -5.16566 3.1848 -10.7416 -5.43918 -2.89801 
-160.224 97.9383 -221.212 85.9039 -51.1514 86.8328 -177.082 9.14056 86.0715 -21.9877 9.95339 -0.280642 72.2827 9.65058 5.3237 33.7429 6.68147 9.71804 177.988 11.5189 93.4932 -20.6643 -9.82862 -4.17935 68.0947 -4.50784 -2.32739 37.1076 -1.3355 -6.14155 -0.133822 6.99558 -90.0117 12.8828 -0.271236 0.00953529 1.2119 -0.270567 0.0214657 -21.3235 -0.26158 -0.0724205 -1.31082 -0.261569 -0.0724295 91.165 -41.3851 -100.652 32.9849 -14.6632 2.19429 -10.4978 -14.7258 -40.3545 -3.25755 -0.282793 2.00005 -97.3534 -49.7829 68.3025 -22.2358 13.844 0.341516 6.2993 17.7478 -34.2044 9.65998 0.711584 3.22394 3.87536 -4.63423 2.82115 -11.2199 -4.94032 -1.63399 
-159.177 97.9134 -220.707 86.6261 -50.5003 87.4979 -177.322 7.88961 85.7736 -21.6831 10.1141 -0.0121749 72.3268 10.1395 5.4809 32.1794 4.93719 8.58724 177.634 10.6533 93.3752 -21.1788 -7.85169 -4.34023 68.0835 -4.2404 -2.22351 38.9866 -0.885962 -3.36601 -0.135294 7.02912 -90.0381 12.8156 -0.286845 -0.0418799 1.14472 -0.288435 -0.0292077 -21.3907 -0.26101 -0.126157 -1.37799 -0.261015 -0.126157 91.2755 -40.9338 -100.581 33.6308 -14.2877 2.96313 -10.1044 -13.1654 -40.6751 -2.78353 -0.255588 3.1867 -97.2161 -49.4102 68.3799 -23.8433 13.3038 1.29502 6.37438 17.5227 -33.9348 9.6617 0.592592 2.10399 3.39413 -2.94991 2.13329 -10.3954 -3.22341 -0.751165 
-157.861 97.4256 -220.082 86.3237 -49.4908 87.2656 -177.587 7.83442 85.475 -22.3252 10.8194 0.0780211 72.0234 9.9401 5.22675 32.6606 4.90323 7.05139 177.751 12.3468 93.2189 -25.59 -6.19212 -4.36492 69.5984 -4.87688 -2.54252 38.2491 -0.767615 -2.70407 -0.182405 7.11647 -90.054 12.641 -0.388009 -0.0623551 0.970126 -0.390399 -0.0452191 -21.5654 -0.351342 -0.176087 -1.55277 -0.351339 -0.176092 91.5909 -40.8612 -100.061 33.3011 -13.3025 3.74516 -10.724 -12.9685 -43.539 -2.50444 -0.228818 1.96994 -97.8942 -49.5134 67.4243 -23.0262 16.228 1.00172 6.5329 15.1051 -37.7578 7.62497 0.567563 3.12513 2.74718 -2.0866 0.886075 -8.89769 -2.23945 0.499632 
-156.458 96.8349 -219.487 84.2162 -50.0713 85.2301 -177.532 8.90667 84.6932 -23.6034 9.60928 -0.286714 73.0275 10.3059 5.17632 30.1887 0.692183 -1.42791 178.853 20.4166 92.9536 -37.1903 -4.0291 -4.24656 67.4176 -3.63079 -2.04301 44.5509 -2.81509 -9.75992 -0.105233 7.08206 -89.9909 12.7094 -0.204604 0.0429645 1.03843 -0.202519 0.0519193 -21.4969 -0.208062 -0.020518 -1.48423 -0.208058 -0.0205182 91.4472 -40.6964 -100.349 33.8088 -13.3015 5.13422 -11.366 -12.0344 -44.4616 -5.75402 -0.400371 1.61806 -97.4038 -49.1867 68.031 -22.0094 17.3387 -0.412047 8.28957 12.5005 -43.2928 7.86098 0.530534 2.54657 2.19381 -1.10371 0.791901 -8.32339 -1.25877 0.722452 
-154.683 96.7816 -217.891 82.8817 -49.0192 85.3705 -177.08 7.53813 86.017 -21.7393 12.0355 -0.429429 73.0685 10.524 5.14261 32.0168 1.31609 -4.28469 178.521 27.7282 94.3257 -39.8914 -0.827742 -2.75162 68.0199 -3.70341 -2.1263 44.3256 -2.55505 -8.75528 -0.283523 7.17201 -90.1383 12.5303 -0.629093 -0.204087 0.859501 -0.63749 -0.176215 -21.6765 -0.53867 -0.38373 -1.66381 -0.53869 -0.383743 91.244 -40.5376 -100.739 33.9936 -13.427 5.90636 -11.1276 -12.5987 -44.0079 -5.41412 -0.383551 1.6079 -97.2796 -48.6704 68.0396 -19.7696 16.5356 -3.90066 9.13206 9.39898 -47.7997 7.26552 0.53177 3.00053 2.47362 -0.135563 1.03245 -7.37133 -0.358182 1.21537 
-152.284 96.4207 -215.241 82.9132 -48.2531 85.731 -176.609 4.90854 86.4054 -21.2092 12.9031 -0.435339 73.6704 11.5301 5.87991 36.066 4.90277 -1.77479 178.607 32.2256 94.541 -32.1362 -1.04429 -1.97069 67.0776 -3.23175 -1.84356 42.1768 -2.6281 -9.97078 -0.423779 7.41969 -90.214 12.0334 -0.943509 -0.323785 0.362738 -0.956842 -0.281966 -22.1742 -0.802571 -0.592393 -2.16157 -0.802578 -0.592408 90.9045 -41.4083 -101.088 33.047 -13.1073 7.15851 -10.4962 -12.4242 -43.2337 -5.06107 -0.364311 1.67554 -97.124 -47.6769 67.9331 -16.0253 16.5955 -10.1659 7.1004 5.73393 -48.9874 6.61968 0.522375 3.41266 2.58118 0.249666 0.472093 -4.87622 0.115879 2.13242 
